<?xml version="1.0" encoding="UTF-8"?>
<svg id="Camada_1" data-name="Camada 1" xmlns="http://www.w3.org/2000/svg" viewBox="0 0 679.02 671.68">
  <defs>
    <style>
      .cls-1 {
        fill: #f4bc4c;
      }

      .cls-1, .cls-2, .cls-3 {
        stroke-width: 0px;
      }

      .cls-2 {
        fill: #20211a;
      }

      .cls-3 {
        fill: #f1e7cc;
      }
    </style>
  </defs>
  <path class="cls-2" d="M639.16,268.85c6.31,2.1,10.17,6.42,12.24,12.74,5.01,15.3,10.05,30.59,15.44,45.75,4.19,11.78-1.37,21.73-12.37,25.58-38.66,13.56-77.01,28.01-115.48,42.13-10.46,3.84-20.91,7.71-31.28,11.97,16.83-.25,33.59,1.15,50.29-.57,33.13-.13,66.29-.26,99.44-.38,4.35.13,8.58.77,12.45,2.92,5.47,3.03,9.02,7.5,9.06,13.89.1,15.64.17,31.28-.25,46.91-.19,7.16-4.28,12.68-10.72,15.66-3.76,1.74-4.3,4.03-4.28,7.66.17,34.11.25,68.22.18,102.34-.04,20.76-14.51,35.4-35.31,35.95-7.65.2-15.31.06-22.96.18-4.31.07-8.64-.36-12.89.62-11.29.01-22.59.02-33.89.04-48.23.1-96.45.21-144.68.31-9.7-.04-18.7-.45-27.18-2.47-2.99-.93-5.07-.75-7.72,1.08-25.62,17.63-53.48,30.28-84.17,35.8-36.32,6.53-71.49,1.91-105.39-12.62-1.97-.85-4.57-1.76-5.86-2.62-6.22-3.2-16.29-5.65-25.38-1.45-15.21,7.02-30.85,13.09-46.33,19.51-3.05,1.26-6.77,3.2-9.36.7-2.49-2.4-1.04-6.26-.16-9.47,5.08-18.57,10.87-36.94,15.37-55.68.63-2.63.49-4.64-.87-6.99-13.28-22.94-22.4-47.41-25.88-73.76-2.21-16.71-1.99-33.52-.92-50.34.81-12.63,3.07-25.04,5.97-37.24,2.78-11.7,6.96-23.09,12.03-34.08.6-1.3,1.08-2.65,1.81-4.45-9.97-.13-19.38-.52-28.67-2.16-27.88-4.95-52.39-16.02-69.62-39.58-25.46-34.8-7.29-79.24,30.87-91.4,9.29-2.96,18.76-4.28,28.48-4.12,3.1.05,6.21,0,10.13,0-9.58-10.8-17.89-21.69-24.83-33.56-14.52-24.85-24.22-51.24-22.43-80.43,1.9-31.02,14.08-56.91,41.82-73.31,15.69-9.27,32.88-10.79,50.56-7.21,42.45,8.59,70.96,35.7,93.28,70.77,13.86,21.78,23.08,45.56,29.13,70.61.23.94.67,1.84,1.01,2.75.03.37.06.75.1,1.12-.15,1.42-.05,2.78.88,3.96.11.91-.37,1.93.65,2.91.63-2.19,1.22-4.24,1.81-6.3,5.65-16.75,13.83-32.19,24.33-46.4,14.42-19.51,33.54-33.03,55.3-43.07,3.56-1.64,4.48-3.26,3.5-7.11-7.04-27.73-19.72-52.02-42.16-70.49-2.94-2.42-6.25-4.4-9.32-6.68-2.35-1.74-3.59-1.38-5.45,1.17-7.03,9.67-17.05,12.64-28.28,10.2-10.94-2.38-18.91-8.87-21.72-20.26-3.36-13.61,7.47-27.56,22.61-29.52,10.62-1.38,20.44,1.53,29.86,5.77,31.45,14.15,53.11,38.12,68.05,68.69,5.42,11.09,9.28,22.73,11.97,34.75.7,3.13,1.83,4.07,5.37,3.57,15.26-2.18,30.54-2.97,45.99-.93,8.02,1.06,16.05,1.8,23.78,4.21,4.11,1.28,5.46-.4,6.47-4.05,5.1-18.43,13-35.54,24.94-50.58,14.83-18.7,33.04-32.63,56.4-39.08,7.13-1.97,14.11-1.62,20.89,1.27,5.98,2.55,8.83,7.75,10.95,13.48,0,2.97.02,5.94.03,8.92-5.93,14.17-16.19,21.32-29.92,21.13-5.74-.08-10.23-2.77-13.86-6.68-2.49-2.68-4.11-2.18-6.51-.27-13.16,10.44-24.09,22.48-31.02,38.18-3.2,7.24-6.15,14.43-8.26,22.02-.9,3.26-.51,5.17,3,7.05,45.59,24.53,71.36,63.3,80.54,113.62,3.29,18.03,2.07,36.07-1.79,53.95-.13.61-.08,1.26-.16,2.6,27.96-9.99,55.47-19.81,82.97-29.63,2.47.11,4.99-.4,7.4.53ZM498.56,427.11c-.16,0-.31.01-.47.02-2.51-.58-3.96.74-5.3,2.68-7.45,10.79-15,21.51-22.48,32.27-1.74,2.51-3.77,4.89-4.46,8.12,12.12,0,23.94,0,35.76,0,1.74,0,3.22-.29,4.31-1.89,8.91-13.01,17.88-25.98,26.77-39,.46-.68,2.02-1.98-.37-2.41-8.77.02-17.53.04-26.3.06l-7.46.14ZM27.2,327.15c1.35,8.15,5.27,15.03,10.92,20.86,16.11,16.64,36.7,22.48,58.99,24.06,8.28.13,9.21.36,17.49.51,1.39.02,7.48.34,10.15-1.95,6.73-8.93,13.46-17.87,20.45-27.14-1.9-.49-3.16-.85-4.45-1.13-14.41-3.15-28.97-5.59-43.14-9.81-1.74-.52-4.04-1.16-4.09-3.1-.07-2.46,2.6-2,4.24-2.43,1.43-.38,2.94-.49,4.42-.7,16.64-2.39,33.27-.94,49.69,1.44,7.47,1.08,10.7-2.52,14.86-7.23-11.14-5.03-21.68-10.24-31.96-15.98-4.47-2.5-8.6-5.58-13.52-7.35-12.22-4.4-24.59-8.13-37.56-9.35-13.91-1.31-27.64-.75-40.18,6.41-8.04,4.58-14.3,10.74-15.66,20.53-1.83,4.04-.91,8.23-.66,12.39ZM63.82,139.81c-1.92,7.36-1.2,14.79-.63,22.21.56,7.15,2.37,14.05,4.62,20.8,8.77,26.3,23.94,48.59,43.22,68.23,19.14,19.49,41.83,33.81,66.54,45.09,12.13,5.54,12.04,5.17,23.56-1.67,4.29-2.55,3.8-4.44,1.51-7.95-18.03-27.55-35.91-55.18-53.81-82.81-1.85-2.85-3.48-5.84-5.73-9.63,4.19.58,6.5,2.49,8.84,4.16,13.77,9.82,25.69,21.64,36.86,34.28,12.69,14.36,24.17,29.68,35.71,44.95,1.4,1.85,2.5,3.27,5.23,1.98,2.69-1.27,1.78-3.09,1.53-5.02-.85-6.43-1.8-12.86-2.41-19.31-2.67-28.56-8.53-56.28-21.08-82.3-13.02-27.01-30.13-50.65-56.23-66.48-15.18-9.21-31.49-15.2-49.73-11.91-22.1,3.99-36.93,25.97-38.01,45.4ZM526.48,254.37c-.3-3.14-.43-6.3-.92-9.41-10.03-62.97-64.66-109.45-128.93-109.12-30.62.16-58.28,8.74-81.83,29.63-10.11,8.97-19.05,18.55-25.51,30.21-21.27,38.36-21.87,76.47,3.99,112.95,20.79,29.33,50.66,44.7,85.33,51.59,2.14.42,4.2-.02,6.31-.82,41.4-15.67,82.81-31.32,124.28-46.79,3.71-1.38,6.4-3.46,8.14-6.79,4.9-9.36,8.28-19.18,8.48-29.89,1.38-7.56.51-14.59.67-21.55ZM206.75,326.29c-15.94,9.2-37.19,28.46-47.53,42.66-2.13,2.93-2.74,5.56-1.74,9.19,5.12,18.52,13.43,35.43,25.27,50.5,28.87,36.74,65.31,63.68,107.83,82.65,23.97,10.7,48.96,18.04,75.38,23.2,0-15.52-.05-30.65.04-45.77.02-2.75-2.13-2.65-3.65-3.21-7.57-2.83-11.37-8.36-11.69-16.28-.19-4.66-.38-9.36.07-13.98.43-4.37-1.33-5.8-5.34-7.03-50.71-15.6-91.87-44.35-121.39-88.9-6.89-10.39-12.36-21.56-17.25-33.04ZM120.28,451.6c-.47,1.57-1.07,2.9-1.25,4.28-2.4,18.33-3.88,36.66-2.27,55.21,1.14,13.13,4.51,25.03,12.56,35.77,19.75,26.32,43.58,47.95,71.97,64.59,22.24,13.03,45.95,21.77,71.77,23.7,30.78,2.31,58.84-6.28,84.78-22.52,2.68-1.68,5.4-3.31,7.93-5.18,1.46-1.08,2.53-2.82,1.89-4.69-.67-1.99-2.58-.92-3.91-.88-25.36.63-50.16-3.05-74.13-11.08-73.91-24.73-131.98-68.91-169.33-139.19ZM631.62,293.72c-12.84,4.43-24.29,8.54-35.85,12.28-2.94.95-4.18,2.57-5.09,5.28-2.76,8.3-5.79,16.52-8.66,24.78-2.97,8.56-5.88,17.14-8.98,26.18,12.51-4.23,24.4-8.22,36.25-12.29,1.47-.51,2.91-.91,3.61-2.93,5.97-17.33,12.13-34.6,18.72-53.31ZM486.61,390.56c11.06-3.53,21.11-7.25,31.44-9.87,6.8-1.73,10.3-5.02,12.38-11.89,4.43-14.65,9.99-28.97,15.28-43.95-12.82,4.16-25,8.12-37.19,12.07-1.71.55-2.64,1.75-3.26,3.42-6.1,16.51-12.25,33-18.66,50.23ZM620.4,426.4c-13.51,0-26.07.02-38.64-.02-1.85,0-2.52,1.26-3.38,2.49-3.9,5.57-7.84,11.11-11.74,16.67-5.46,7.78-10.91,15.56-16.7,23.81,9.53,0,18.21-.73,26.71.19,10.32,1.12,16.83-2.32,22.08-11.41,6.24-10.81,14.05-20.71,21.67-31.72ZM460.82,356.11c-12.8,4.41-25.08,8.57-37.3,12.89-2.73.96-8.54,13.82-7.66,16.37.15.45.52.85.86,1.2,7.51,7.69,16.32,13.82,24.51,21.29,6.62-17.5,12.98-34.3,19.59-51.75ZM433.36,464.61c7.7.15,13.34-5.14,13.59-12.75.25-7.69-5.51-13.8-13.08-13.88-7.33-.08-13.17,5.67-13.36,13.16-.19,7.56,5.31,13.32,12.85,13.47ZM386.91,438.2c-7.33.08-13.03,5.68-13.07,12.84-.04,7.62,5.94,13.51,13.62,13.41,7.29-.09,12.84-5.78,12.76-13.09-.08-7.48-5.9-13.24-13.31-13.16ZM400.21,401.86c-.12-7.26-6.37-13.46-13.39-13.27-6.96.19-12.88,6.26-12.89,13.23,0,7.12,6.24,13.26,13.47,13.23,7.03-.02,12.92-6.09,12.8-13.19ZM656.61,441.63c-6.88,9.77-12.97,18.42-19.48,27.67,6.27,0,11.54-.06,16.81.03,1.93.03,2.96-.19,3.02-2.58.19-7.94.43-15.87-.35-25.13Z"/>
  <path class="cls-3" d="M657.44,406.06c-33.15.13-66.3.26-99.44.38.51-1.37,1.69-.76,2.53-.76,31.15-.05,62.31-.07,93.46-.07,1.15,0,2.3.29,3.44.45Z"/>
  <path class="cls-3" d="M253.26,212.5c-.59,2.05-1.18,4.11-1.81,6.3-1.02-.98-.54-2-.65-2.91,1.38-1.69,1.68-3.14-.88-3.96-.03-.38-.06-.75-.1-1.12,1.49-.12,2.23,1.24,3.43,1.7Z"/>
  <path class="cls-3" d="M556.77,46.36c-.01-2.98-.02-5.96-.03-8.92,1.35,2.98,1.23,5.95.03,8.92Z"/>
  <path class="cls-3" d="M639.16,268.85c-2.42-.93-4.94-.42-7.4-.53,2.58-1.26,5.06-1.34,7.4.53Z"/>
  <path class="cls-1" d="M525.81,275.93c-.2,10.71-3.58,20.53-8.48,29.89-1.74,3.34-4.43,5.41-8.14,6.79-41.47,15.48-82.88,31.13-124.28,46.79-2.11.8-4.17,1.24-6.31.82-34.67-6.89-64.54-22.25-85.33-51.59-25.86-36.48-25.26-74.59-3.99-112.95,6.46-11.66,15.4-21.24,25.51-30.21,23.55-20.89,51.22-29.47,81.83-29.63,64.27-.33,118.9,46.14,128.93,109.12.49,3.11.62,6.27.92,9.41.05,7.02.82,14.26-.67,21.55ZM408.56,237.9c-.04-12.48-3.89-23.58-10.59-31.56-11.96-14.23-31.11-14.48-43.41-.55-14.54,16.46-13.32,47.37,2.47,62.54,14.19,13.63,35.04,10.73,45.03-6.22,4.61-7.82,6.17-16.39,6.5-24.21ZM451.54,230.31c.04,13.68,3.26,24.84,11.79,33.89,10.32,10.94,25.51,10.33,34.83-1.13,13.06-16.06,10.97-46.06-4.19-60.03-10.5-9.68-24.13-8.95-33.36,1.92-6.54,7.7-9.11,16.82-9.07,25.35ZM434.27,326.32c1.66,0,3.33.09,4.99-.01,14.46-.86,27.47-9.57,31.35-20.95,1.96-5.75,1.37-10.32-1.92-11.7-4.8-2.02-7.72,1.14-10.61,4.34-12.38,13.74-31.26,14.36-44.61,1.51-1.67-1.61-3.3-3.28-5.04-4.82-1.91-1.7-4.28-2-6.56-1.16-2.48.91-3.16,3.2-3.34,5.66-.35,4.72,1.33,8.81,4.06,12.48,7.87,10.63,19.01,14.37,31.68,14.65Z"/>
  <path class="cls-1" d="M63.82,139.81c1.09-19.43,15.91-41.41,38.01-45.4,18.24-3.29,34.54,2.7,49.73,11.91,26.09,15.83,43.2,39.47,56.23,66.48,12.55,26.03,18.41,53.74,21.08,82.3.6,6.46,1.56,12.88,2.41,19.31.25,1.93,1.16,3.75-1.53,5.02-2.73,1.29-3.84-.13-5.23-1.98-11.54-15.27-23.02-30.59-35.71-44.95-11.17-12.64-23.09-24.46-36.86-34.28-2.34-1.67-4.65-3.58-8.84-4.16,2.25,3.79,3.89,6.78,5.73,9.63,17.9,27.63,35.78,55.27,53.81,82.81,2.29,3.51,2.78,5.41-1.51,7.95-11.52,6.84-11.43,7.21-23.56,1.67-24.7-11.28-47.4-25.59-66.54-45.09-19.28-19.64-34.45-41.93-43.22-68.23-2.25-6.75-4.05-13.65-4.62-20.8.21-7.4.42-14.81.63-22.22Z"/>
  <path class="cls-1" d="M206.75,326.29c4.9,11.48,10.37,22.65,17.25,33.04,29.52,44.55,70.68,73.31,121.39,88.9,4,1.23,5.76,2.66,5.34,7.03-.45,4.62-.26,9.32-.07,13.98.32,7.92,4.12,13.45,11.69,16.28,1.52.57,3.67.46,3.65,3.21-.09,15.12-.04,30.24-.04,45.77-26.42-5.16-51.41-12.51-75.38-23.2-42.52-18.97-78.96-45.91-107.83-82.65-11.84-15.08-20.15-31.98-25.27-50.5-1-3.63-.4-6.25,1.74-9.19,10.34-14.2,31.59-33.46,47.53-42.66Z"/>
  <path class="cls-1" d="M120.28,451.6c37.34,70.28,95.42,114.46,169.33,139.19,23.97,8.02,48.77,11.71,74.13,11.08,1.34-.03,3.24-1.11,3.91.88.63,1.87-.43,3.61-1.89,4.69-2.53,1.88-5.25,3.51-7.93,5.18-25.94,16.24-54,24.83-84.78,22.52-25.82-1.93-49.53-10.67-71.77-23.7-28.39-16.64-52.22-38.27-71.97-64.59-8.05-10.73-11.42-22.63-12.56-35.77-1.62-18.55-.13-36.88,2.27-55.21.18-1.38.78-2.71,1.25-4.28Z"/>
  <path class="cls-1" d="M97.11,372.08c-22.29-1.58-42.88-7.42-58.99-24.06-5.65-5.83-9.57-12.71-10.92-20.86.22-4.13.44-8.26.66-12.39,1.36-9.79,7.62-15.94,15.66-20.53,12.54-7.15,26.27-7.72,40.18-6.41,12.97,1.22,25.34,4.95,37.56,9.35,4.92,1.77,9.05,4.85,13.52,7.35,10.28,5.74,20.82,10.96,31.96,15.98-4.16,4.71-7.39,8.32-14.86,7.23-16.42-2.38-33.05-3.83-49.69-1.44-1.48.21-2.98.32-4.42.7-1.64.43-4.3-.03-4.24,2.43.05,1.94,2.36,2.58,4.09,3.1,14.16,4.22,28.73,6.67,43.14,9.81,1.28.28,2.55.65,4.45,1.13-6.99,9.28-13.72,18.21-20.45,27.14-1.94,1.29-3.41,1.73-5.55,1.84-5.07.27-13.03,0-22.09-.4Z"/>
  <path class="cls-3" d="M631.62,293.72c-6.6,18.7-12.75,35.97-18.72,53.31-.7,2.02-2.13,2.42-3.61,2.93-11.86,4.07-23.74,8.06-36.25,12.29,3.1-9.04,6.01-17.62,8.98-26.18,2.87-8.27,5.9-16.48,8.66-24.78.9-2.71,2.15-4.33,5.09-5.28,11.57-3.74,23.02-7.85,35.85-12.28Z"/>
  <path class="cls-3" d="M486.61,390.56c6.41-17.23,12.56-33.72,18.66-50.23.62-1.67,1.55-2.86,3.26-3.42,12.18-3.95,24.37-7.91,37.19-12.07-5.29,14.99-10.85,29.3-15.28,43.95-2.08,6.87-5.57,10.16-12.38,11.89-10.33,2.63-20.38,6.34-31.44,9.87Z"/>
  <path class="cls-3" d="M620.4,426.4c-7.63,11.01-15.43,20.92-21.67,31.72-5.24,9.08-11.75,12.53-22.08,11.41-8.5-.92-17.18-.19-26.71-.19,5.79-8.25,11.23-16.04,16.7-23.81,3.91-5.56,7.84-11.1,11.74-16.67.86-1.22,1.53-2.49,3.38-2.49,12.56.04,25.13.02,38.64.02Z"/>
  <path class="cls-3" d="M532.33,426.91c2.39.43.83,1.73.37,2.41-8.89,13.02-17.86,25.99-26.77,39-1.09,1.59-2.58,1.89-4.31,1.89-11.82-.02-23.64,0-35.76,0,.69-3.23,2.72-5.61,4.46-8.12,7.48-10.77,15.03-21.49,22.48-32.27,1.34-1.94,2.78-3.26,5.29-2.68,0,0,.24.11.24.11l.24-.13c2.49-.05,4.98-.09,7.44-.14,8.76-.02,17.54-.04,26.32-.05Z"/>
  <path class="cls-3" d="M460.82,356.11c-6.61,17.46-12.96,34.25-19.59,51.75-8.19-7.47-17-13.61-24.51-21.29-.34-.35-.7-.75-.86-1.2-.88-2.55,4.93-15.41,7.66-16.37,12.22-4.32,24.5-8.49,37.3-12.89Z"/>
  <path class="cls-1" d="M433.36,464.61c-7.55-.15-13.04-5.91-12.85-13.47.19-7.49,6.03-13.24,13.36-13.16,7.57.09,13.33,6.2,13.08,13.88-.24,7.6-5.89,12.9-13.59,12.75Z"/>
  <path class="cls-1" d="M386.91,438.2c7.41-.08,13.23,5.68,13.31,13.16.08,7.31-5.47,13-12.76,13.09-7.68.09-13.65-5.79-13.62-13.41.04-7.16,5.73-12.76,13.07-12.84Z"/>
  <path class="cls-1" d="M400.21,401.86c.11,7.1-5.77,13.17-12.8,13.19-7.23.03-13.48-6.11-13.47-13.23,0-6.96,5.93-13.04,12.89-13.23,7.02-.19,13.27,6,13.39,13.27Z"/>
  <path class="cls-3" d="M656.61,441.63c.78,9.26.54,17.19.35,25.13-.06,2.39-1.09,2.61-3.02,2.58-5.27-.1-10.55-.03-16.81-.03,6.51-9.25,12.61-17.91,19.48-27.67Z"/>
  <path class="cls-1" d="M532.33,426.91c-8.78.02-17.56.04-26.32.05,8.79-.02,17.55-.04,26.32-.05Z"/>
  <path class="cls-3" d="M63.82,139.81c-.21,7.41-.42,14.81-.63,22.22-.58-7.43-1.29-14.86.63-22.22Z"/>
  <path class="cls-3" d="M27.86,314.76c-.22,4.13-.44,8.26-.66,12.39-.25-4.15-1.17-8.35.66-12.39Z"/>
  <path class="cls-1" d="M249.92,211.93c2.55.82,2.25,2.27.88,3.96-.92-1.18-1.02-2.54-.88-3.96Z"/>
  <path class="cls-1" d="M498.56,427.11l-.24.13s-.25-.11-.24-.11c.16,0,.32-.01.47-.02Z"/>
  <path class="cls-2" d="M408.56,237.9c-.33,7.82-1.89,16.39-6.5,24.21-9.99,16.95-30.84,19.85-45.03,6.22-15.79-15.18-17.01-46.08-2.47-62.54,12.3-13.92,31.45-13.68,43.41.55,6.7,7.97,10.56,19.08,10.59,31.56ZM384.77,233.56c5.71.05,10-4.19,10.03-9.93.03-5.42-4.19-10.01-9.35-10.17-5.38-.17-10.3,4.45-10.5,9.86-.21,5.6,4.18,10.19,9.82,10.24Z"/>
  <path class="cls-2" d="M451.54,230.31c-.05-8.52,2.53-17.64,9.07-25.35,9.23-10.87,22.86-11.6,33.36-1.92,15.16,13.97,17.25,43.97,4.19,60.03-9.32,11.46-24.51,12.07-34.83,1.13-8.53-9.05-11.75-20.21-11.79-33.89ZM485.76,232.4c5.27.09,9.26-3.98,9.3-9.48.04-5.33-3.72-9.51-8.65-9.61-5.32-.11-9.49,3.88-9.61,9.21-.13,5.38,3.88,9.8,8.96,9.88Z"/>
  <path class="cls-2" d="M434.27,326.32c-12.67-.28-23.8-4.02-31.68-14.65-2.72-3.68-4.41-7.77-4.06-12.48.18-2.45.87-4.74,3.34-5.66,2.28-.84,4.64-.55,6.56,1.16,1.74,1.54,3.36,3.21,5.04,4.82,13.34,12.85,32.22,12.24,44.61-1.51,2.88-3.2,5.81-6.36,10.61-4.34,3.29,1.38,3.89,5.95,1.92,11.7-3.88,11.38-16.89,20.08-31.35,20.95-1.66.1-3.33.01-4.99.01Z"/>
  <path class="cls-3" d="M384.77,233.56c-5.64-.05-10.04-4.64-9.82-10.24.21-5.41,5.12-10.03,10.5-9.86,5.16.16,9.38,4.75,9.35,10.17-.03,5.74-4.32,9.99-10.03,9.93Z"/>
  <path class="cls-3" d="M485.76,232.4c-5.08-.08-9.09-4.5-8.96-9.88.13-5.33,4.3-9.33,9.61-9.21,4.93.1,8.69,4.28,8.65,9.61-.04,5.5-4.03,9.57-9.3,9.48Z"/>
</svg>